<?xml version="1.0" encoding="utf-8"?>
<!-- Generator: Adobe Illustrator 23.0.1, SVG Export Plug-In . SVG Version: 6.00 Build 0)  -->
<svg version="1.1" id="Layer_1" xmlns="http://www.w3.org/2000/svg" xmlns:xlink="http://www.w3.org/1999/xlink" x="0px" y="0px"
	 viewBox="0 0 1920 1080" style="enable-background:new 0 0 1920 1080;" xml:space="preserve">
<style type="text/css">
	.st0{fill:#FFFFFF;stroke:#000000;stroke-width:12;stroke-miterlimit:10;}
</style>
<path class="st0" d="M1825.79,1087.53h-413.69c-23.6-8.98-31.41-31.01-20.18-45.65c9.12-11.89,29.88-17.72,49.44-12.59
	c-3.27-4.46-13.63-19.89-8.07-38.3c8.07-26.72,42.71-36.62,50.45-38.83c8.94-2.55,46.94-12.08,72.65,5.51
	c6.22,4.25,10.41,9.75,10.41,9.75c3.75,4.74,5.69,9.16,6.74,12.29c-0.18-9.48,1.15-28.38,15.14-48.27
	c7.29-10.38,18.83-26.95,44.4-35.16c2.95-0.95,35.79-11.02,67.6,2.36c6.46,2.72,22.4,9.42,30.27,24.4
	c6.07,11.56,4.23,22.1,3.03,26.76c17.17-11.9,43.89-9.83,57.51,3.94c13.46,13.6,9.55,33.99-9.08,44.08
	c14.93-7.84,35.28-5.38,46.41,5.51c11,10.76,9.72,26.54-3.03,36.2c6.31,0.48,24.79,2.54,41.37,14.17
	c18.52,12.98,22.34,29.24,23.21,33.84C1868.84,1087.53,1847.31,1087.53,1825.79,1087.53z"/>
<path class="st0" d="M1412.2,387.01h466.22c14.55-3.31,25.67-12.59,27.97-23.61c3.16-15.15-10.65-32.19-33.15-35.85
	c-0.77-1.86-7.5-17.32-26.94-22.74c-14.99-4.17-31.77-0.77-43.51,8.74c-0.75-15.17-12.57-28.2-29.01-32.35
	c-18.58-4.69-39.41,2.9-48.69,18.36c-5.18-2.33-10.36-4.66-15.54-7c3.84-6.92,12.92-25.71,8.29-49.84
	c-5.11-26.66-23.73-43-30.05-48.09c-9.55-6.86-36.72-24.44-73.56-23.61c-48.71,1.09-94.38,33.91-110.86,82.2
	c-19.83-9.67-43.79-10.2-62.16-0.87c-24.08,12.21-35.01,39.54-23.83,64.71c-7.61,0.89-22.14,3.59-35.23,13.12
	c-28.36,20.65-23.28,53.97-22.79,56.84H1412.2z"/>
<path class="st0" d="M397.16,369.26H-56.28c-14.15-3.82-24.97-14.5-27.21-27.21c-3.07-17.46,10.36-37.09,32.24-41.31
	c0.75-2.14,7.29-19.96,26.2-26.2c14.58-4.81,30.9-0.89,42.32,10.08c0.73-17.48,12.23-32.5,28.21-37.28
	c18.07-5.41,38.33,3.34,47.36,21.16c5.04-2.69,10.08-5.37,15.11-8.06c-3.73-7.98-12.56-29.63-8.06-57.44
	c4.97-30.72,23.08-49.54,29.22-55.42c9.29-7.91,35.71-28.16,71.54-27.21c47.37,1.26,91.8,39.08,107.82,94.72
	c19.29-11.14,42.59-11.75,60.46-1.01c23.42,14.07,34.05,45.56,23.18,74.57c7.4,1.03,21.53,4.13,34.26,15.11
	c27.58,23.79,22.65,62.2,22.17,65.5H397.16z"/>
<path class="st0" d="M173.29,968.43h628.75c35.86-11.4,47.74-39.35,30.67-57.93c-13.86-15.08-45.41-22.48-75.14-15.98
	c4.97-5.66,20.72-25.24,12.27-48.6c-12.27-33.91-64.92-46.47-76.68-49.27c-13.59-3.24-71.34-15.33-110.41,6.99
	c-9.45,5.4-15.83,12.37-15.83,12.37c-5.7,6.01-8.65,11.62-10.24,15.6c0.27-12.03-1.75-36.01-23-61.26
	c-11.09-13.17-28.62-34.19-67.48-44.61c-4.49-1.2-54.4-13.98-102.75,3c-9.81,3.45-34.04,11.95-46.01,30.96
	c-9.23,14.66-6.42,28.05-4.6,33.96c-26.09-15.1-66.7-12.48-87.41,4.99c-20.45,17.26-14.51,43.13,13.8,55.93
	c-22.7-9.95-53.62-6.83-70.54,6.99c-16.72,13.65-14.78,33.68,4.6,45.94c-9.6,0.61-37.67,3.23-62.87,17.98
	c-28.15,16.47-33.95,37.11-35.27,42.95C107.86,968.43,140.58,968.43,173.29,968.43z"/>
<path class="st0" d="M274.2,543.64h233.43c7.29-1.66,12.85-6.3,14.01-11.82c1.58-7.59-5.33-16.12-16.6-17.95
	c-0.38-0.93-3.75-8.67-13.49-11.38c-7.5-2.09-15.91-0.39-21.79,4.38c-0.38-7.59-6.29-14.12-14.52-16.2
	c-9.3-2.35-19.73,1.45-24.38,9.19c-2.59-1.17-5.19-2.34-7.78-3.5c1.92-3.47,6.47-12.87,4.15-24.96
	c-2.56-13.35-11.88-21.53-15.04-24.08c-4.78-3.44-18.39-12.24-36.83-11.82c-24.39,0.55-47.26,16.98-55.5,41.15
	c-9.93-4.84-21.93-5.1-31.12-0.44c-12.05,6.12-17.53,19.79-11.93,32.4c-3.81,0.45-11.08,1.8-17.64,6.57
	c-14.2,10.34-11.66,27.02-11.41,28.46H274.2z"/>
<path class="st0" d="M1530.33,780.87h339.34c10.59-1.94,18.69-7.37,20.36-13.83c2.3-8.88-7.75-18.86-24.13-21
	c-0.56-1.09-5.46-10.15-19.61-13.32c-10.91-2.45-23.12-0.45-31.67,5.12c-0.55-8.89-9.15-16.52-21.11-18.96
	c-13.53-2.75-28.68,1.7-35.44,10.76c-3.77-1.37-7.54-2.73-11.31-4.1c2.79-4.06,9.4-15.06,6.03-29.2
	c-3.72-15.62-17.27-25.19-21.87-28.18c-6.95-4.02-26.73-14.32-53.54-13.83c-35.45,0.64-68.7,19.87-80.69,48.16
	c-14.44-5.67-31.87-5.97-45.25-0.51c-17.52,7.16-25.48,23.16-17.34,37.91c-5.54,0.52-16.11,2.1-25.64,7.68
	c-20.64,12.1-16.95,31.62-16.59,33.3H1530.33z"/>
<path class="st0" d="M883.8,1044.6h278.15c15.87-5.04,21.12-17.41,13.57-25.63c-6.13-6.67-20.09-9.95-33.24-7.07
	c2.2-2.5,9.17-11.17,5.43-21.5c-5.43-15-28.72-20.56-33.92-21.8c-6.01-1.43-31.56-6.78-48.85,3.09c-4.18,2.39-7,5.47-7,5.47
	c-2.52,2.66-3.83,5.14-4.53,6.9c0.12-5.32-0.77-15.93-10.18-27.1c-4.9-5.82-12.66-15.13-29.85-19.73
	c-1.99-0.53-24.07-6.18-45.45,1.33c-4.34,1.52-15.06,5.29-20.35,13.7c-4.08,6.49-2.84,12.41-2.04,15.02
	c-11.54-6.68-29.51-5.52-38.67,2.21c-9.05,7.64-6.42,19.08,6.11,24.74c-10.04-4.4-23.72-3.02-31.21,3.09
	c-7.39,6.04-6.54,14.9,2.04,20.32c-4.24,0.27-16.67,1.43-27.81,7.95c-12.45,7.29-15.02,16.42-15.6,19
	C854.85,1044.6,869.32,1044.6,883.8,1044.6z"/>
<path class="st0" d="M-1.35,1102.87h247.1c14.09-4.48,18.76-15.46,12.05-22.77c-5.45-5.93-17.85-8.84-29.53-6.28
	c1.95-2.22,8.14-9.92,4.82-19.1c-4.82-13.33-25.51-18.26-30.13-19.36c-5.34-1.27-28.04-6.02-43.39,2.75
	c-3.71,2.12-6.22,4.86-6.22,4.86c-2.24,2.36-3.4,4.57-4.02,6.13c0.11-4.73-0.69-14.15-9.04-24.07
	c-4.36-5.17-11.25-13.44-26.52-17.53c-1.76-0.47-21.38-5.49-40.38,1.18c-3.86,1.35-13.38,4.7-18.08,12.17
	c-3.63,5.76-2.52,11.02-1.81,13.35c-10.25-5.93-26.21-4.9-34.35,1.96c-8.04,6.78-5.7,16.95,5.42,21.98
	c-8.92-3.91-21.07-2.69-27.72,2.75c-6.57,5.37-5.81,13.24,1.81,18.06c-3.77,0.24-14.81,1.27-24.71,7.07
	c-11.06,6.47-13.34,14.58-13.86,16.88C-27.06,1102.87-14.2,1102.87-1.35,1102.87z"/>
<path class="st0" d="M1249.64,137.13h503.67c28.73-13.84,38.24-47.78,24.57-70.33c-11.1-18.31-36.38-27.3-60.19-19.4
	c3.98-6.87,16.6-30.65,9.83-59.02c-9.83-41.18-52-56.42-61.42-59.82c-10.89-3.94-57.15-18.61-88.45,8.49
	c-7.57,6.55-12.68,15.02-12.68,15.02c-4.57,7.3-6.93,14.11-8.2,18.94c0.22-14.6-1.4-43.72-18.43-74.38
	c-8.88-15.99-22.92-41.52-54.05-54.16c-3.59-1.46-43.58-16.97-82.31,3.64c-7.86,4.18-27.27,14.51-36.85,37.59
	c-7.39,17.8-5.15,34.05-3.69,41.23c-20.9-18.33-53.43-15.15-70.02,6.06c-16.39,20.96-11.63,52.37,11.06,67.91
	c-18.18-12.08-42.95-8.3-56.51,8.49c-13.39,16.58-11.84,40.89,3.69,55.78c-7.69,0.75-30.18,3.92-50.37,21.83
	c-22.55,20-27.19,45.06-28.25,52.14C1197.23,137.13,1223.44,137.13,1249.64,137.13z"/>
<path class="st0" d="M631.85,123.17H333.08c-9.33-2.51-16.45-9.56-17.93-17.93c-2.02-11.51,6.83-24.44,21.25-27.22
	c0.49-1.41,4.8-13.15,17.26-17.26c9.6-3.17,20.36-0.59,27.89,6.64c0.48-11.52,8.06-21.41,18.59-24.57
	c11.91-3.56,25.25,2.2,31.21,13.94c3.32-1.77,6.64-3.54,9.96-5.31c-2.46-5.26-8.28-19.52-5.31-37.84
	c3.28-20.24,15.21-32.65,19.25-36.52c6.12-5.21,23.53-18.55,47.14-17.93c31.21,0.83,60.48,25.75,71.04,62.41
	c12.71-7.34,28.06-7.74,39.84-0.66c15.43,9.27,22.44,30.02,15.27,49.13c4.87,0.68,14.19,2.72,22.57,9.96
	c18.17,15.68,14.92,40.98,14.61,43.16H631.85z"/>
<path class="st0" d="M1433.33,593.78h233.43c7.29-1.66,12.85-6.3,14.01-11.82c1.58-7.59-5.33-16.12-16.6-17.95
	c-0.38-0.93-3.75-8.67-13.49-11.38c-7.5-2.09-15.91-0.39-21.79,4.38c-0.38-7.59-6.29-14.12-14.52-16.2
	c-9.3-2.35-19.73,1.45-24.38,9.19c-2.59-1.17-5.19-2.34-7.78-3.5c1.92-3.47,6.47-12.87,4.15-24.96
	c-2.56-13.35-11.88-21.53-15.04-24.08c-4.78-3.44-18.39-12.24-36.83-11.82c-24.39,0.55-47.26,16.98-55.5,41.15
	c-9.93-4.84-21.93-5.1-31.12-0.44c-12.05,6.12-17.53,19.79-11.93,32.4c-3.81,0.45-11.08,1.8-17.64,6.57
	c-14.2,10.34-11.66,27.02-11.41,28.46H1433.33z"/>
<path class="st0" d="M256.91,736.32H-41.86c-9.33-2.51-16.45-9.56-17.93-17.93c-2.02-11.51,6.83-24.44,21.25-27.22
	c0.49-1.41,4.8-13.15,17.26-17.26c9.6-3.17,20.36-0.59,27.89,6.64c0.48-11.52,8.06-21.41,18.59-24.57
	c11.91-3.56,25.25,2.2,31.21,13.94c3.32-1.77,6.64-3.54,9.96-5.31c-2.46-5.26-8.28-19.52-5.31-37.84
	c3.28-20.24,15.21-32.65,19.25-36.52c6.12-5.21,23.53-18.55,47.14-17.93c31.21,0.83,60.48,25.75,71.04,62.41
	c12.71-7.34,28.06-7.74,39.84-0.66c15.43,9.27,22.44,30.02,15.27,49.13c4.87,0.68,14.19,2.72,22.57,9.96
	c18.17,15.68,14.92,40.98,14.61,43.16H256.91z"/>
</svg>
